<svg xmlns="http://www.w3.org/2000/svg" viewBox="0 0 1240 1000" font-family="'Segoe Print','Comic Sans MS','Bradley Hand',cursive">
<rect x="0" y="0" width="1240" height="1000" fill="#ffffff"/>
<rect x="6" y="6" width="1228" height="988" rx="18" fill="none" stroke="#dee2e6" stroke-width="2"/>
<text x="620" y="52" font-size="34" font-weight="bold" text-anchor="middle" fill="#343a40">How Hydraia works</text>
<text x="620" y="82" font-size="15" text-anchor="middle" fill="#868e96">One command runs the whole feature pipeline — you stay on Opus 4.8, it decides everything else.</text>
<rect x="340" y="100" width="560" height="46" rx="12" fill="#ffec99" stroke="#f08c00" stroke-width="3"/>
<text x="620" y="129" font-size="20" font-weight="bold" text-anchor="middle" fill="#343a40" font-family="'DejaVu Sans Mono','Consolas',monospace">/hydraia:feature  &lt;what you want built&gt;</text>
<text x="620" y="166" font-size="13" text-anchor="middle" fill="#868e96">Language gate · Model guard</text>
<path d="M 269 198 L 269 192 L 1207 192 L 1207 198" fill="none" stroke="#1971c2" stroke-width="2.5"/>
<text x="738" y="184" font-size="14" font-weight="bold" text-anchor="middle" fill="#1971c2">INTERACTIVE  —  pauses allowed, design happens with you</text>
<rect x="39" y="210" width="218" height="118" rx="12" fill="#e9ecef" stroke="#495057" stroke-width="2.5"/>
<circle cx="65" cy="236" r="17" fill="#ffffff" stroke="#495057" stroke-width="2"/>
<text x="65" y="242" font-size="15" font-weight="bold" text-anchor="middle" fill="#495057" font-family="'DejaVu Sans Mono','Consolas',monospace">-1</text>
<text x="91" y="242" font-size="19" font-weight="bold" text-anchor="start" fill="#343a40">Triage</text>
<text x="53" y="272" font-size="13.5" text-anchor="start" fill="#495057">Detect intent, route the</text>
<text x="53" y="291" font-size="13.5" text-anchor="start" fill="#495057">request</text>
<rect x="183" y="294" width="62" height="22" rx="11" fill="#d0bfff" stroke="#6741d9" stroke-width="1.5"/>
<text x="214" y="309" font-size="12" font-weight="bold" text-anchor="middle" fill="#ffffff">Opus</text>
<rect x="275" y="210" width="218" height="118" rx="12" fill="#a5d8ff" stroke="#1971c2" stroke-width="2.5"/>
<circle cx="301" cy="236" r="17" fill="#ffffff" stroke="#1971c2" stroke-width="2"/>
<text x="301" y="242" font-size="15" font-weight="bold" text-anchor="middle" fill="#1971c2" font-family="'DejaVu Sans Mono','Consolas',monospace">0</text>
<text x="327" y="242" font-size="19" font-weight="bold" text-anchor="start" fill="#343a40">Context</text>
<text x="289" y="272" font-size="13.5" text-anchor="start" fill="#495057">Query code graph · PDF →</text>
<text x="289" y="291" font-size="13.5" text-anchor="start" fill="#495057">markdown</text>
<rect x="419" y="294" width="62" height="22" rx="11" fill="#d0bfff" stroke="#6741d9" stroke-width="1.5"/>
<text x="450" y="309" font-size="12" font-weight="bold" text-anchor="middle" fill="#ffffff">Opus</text>
<rect x="511" y="210" width="218" height="118" rx="12" fill="#a5d8ff" stroke="#1971c2" stroke-width="2.5"/>
<circle cx="537" cy="236" r="17" fill="#ffffff" stroke="#1971c2" stroke-width="2"/>
<text x="537" y="242" font-size="15" font-weight="bold" text-anchor="middle" fill="#1971c2" font-family="'DejaVu Sans Mono','Consolas',monospace">1</text>
<text x="563" y="242" font-size="19" font-weight="bold" text-anchor="start" fill="#343a40">Think</text>
<text x="525" y="272" font-size="13.5" text-anchor="start" fill="#495057">Think-before-code gate</text>
<rect x="655" y="294" width="62" height="22" rx="11" fill="#d0bfff" stroke="#6741d9" stroke-width="1.5"/>
<text x="686" y="309" font-size="12" font-weight="bold" text-anchor="middle" fill="#ffffff">Opus</text>
<rect x="747" y="210" width="218" height="118" rx="12" fill="#a5d8ff" stroke="#1971c2" stroke-width="2.5"/>
<circle cx="773" cy="236" r="17" fill="#ffffff" stroke="#1971c2" stroke-width="2"/>
<text x="773" y="242" font-size="15" font-weight="bold" text-anchor="middle" fill="#1971c2" font-family="'DejaVu Sans Mono','Consolas',monospace">2</text>
<text x="799" y="242" font-size="19" font-weight="bold" text-anchor="start" fill="#343a40">Design</text>
<text x="761" y="272" font-size="13.5" text-anchor="start" fill="#495057">Brainstorm → spec + threat</text>
<text x="761" y="291" font-size="13.5" text-anchor="start" fill="#495057">model</text>
<rect x="891" y="294" width="62" height="22" rx="11" fill="#d0bfff" stroke="#6741d9" stroke-width="1.5"/>
<text x="922" y="309" font-size="12" font-weight="bold" text-anchor="middle" fill="#ffffff">Opus</text>
<rect x="983" y="210" width="218" height="118" rx="12" fill="#a5d8ff" stroke="#1971c2" stroke-width="2.5"/>
<circle cx="1009" cy="236" r="17" fill="#ffffff" stroke="#1971c2" stroke-width="2"/>
<text x="1009" y="242" font-size="15" font-weight="bold" text-anchor="middle" fill="#1971c2" font-family="'DejaVu Sans Mono','Consolas',monospace">3</text>
<text x="1035" y="242" font-size="19" font-weight="bold" text-anchor="start" fill="#343a40">Plan</text>
<text x="997" y="272" font-size="13.5" text-anchor="start" fill="#495057">Detailed plan +</text>
<text x="997" y="291" font-size="13.5" text-anchor="start" fill="#495057">self-review loop</text>
<rect x="1127" y="294" width="62" height="22" rx="11" fill="#d0bfff" stroke="#6741d9" stroke-width="1.5"/>
<text x="1158" y="309" font-size="12" font-weight="bold" text-anchor="middle" fill="#ffffff">Opus</text>
<rect x="44" y="368" width="1152" height="40" rx="10" fill="#ffec99" stroke="#f08c00" stroke-width="3"/>
<text x="620" y="394" font-size="16" font-weight="bold" text-anchor="middle" fill="#8a5a00">⛔  FROZEN PLAN  —  no source code may be written until a spec + plan exist</text>
<path d="M 134 440 L 134 434 L 1106 434 L 1106 440" fill="none" stroke="#2f9e44" stroke-width="2.5"/>
<text x="620" y="426" font-size="14" font-weight="bold" text-anchor="middle" fill="#2f9e44">AUTONOMOUS  —  never pauses, only a real blocker stops it</text>
<rect x="140" y="452" width="300" height="118" rx="12" fill="#b2f2bb" stroke="#2f9e44" stroke-width="2.5"/>
<circle cx="166" cy="478" r="17" fill="#ffffff" stroke="#2f9e44" stroke-width="2"/>
<text x="166" y="484" font-size="15" font-weight="bold" text-anchor="middle" fill="#2f9e44" font-family="'DejaVu Sans Mono','Consolas',monospace">4</text>
<text x="192" y="484" font-size="19" font-weight="bold" text-anchor="start" fill="#343a40">Execute</text>
<text x="154" y="514" font-size="13.5" text-anchor="start" fill="#495057">Fresh sub-agent per task, commits</text>
<rect x="366" y="536" width="62" height="22" rx="11" fill="#b2f2bb" stroke="#2f9e44" stroke-width="1.5"/>
<text x="397" y="551" font-size="12" font-weight="bold" text-anchor="middle" fill="#ffffff">Sonnet</text>
<rect x="470" y="452" width="300" height="118" rx="12" fill="#b2f2bb" stroke="#2f9e44" stroke-width="2.5"/>
<circle cx="496" cy="478" r="17" fill="#ffffff" stroke="#2f9e44" stroke-width="2"/>
<text x="496" y="484" font-size="15" font-weight="bold" text-anchor="middle" fill="#2f9e44" font-family="'DejaVu Sans Mono','Consolas',monospace">5</text>
<text x="522" y="484" font-size="19" font-weight="bold" text-anchor="start" fill="#343a40">Review</text>
<text x="484" y="514" font-size="13.5" text-anchor="start" fill="#495057">Double review + security gate</text>
<rect x="696" y="536" width="62" height="22" rx="11" fill="#d0bfff" stroke="#6741d9" stroke-width="1.5"/>
<text x="727" y="551" font-size="12" font-weight="bold" text-anchor="middle" fill="#ffffff">Opus</text>
<rect x="800" y="452" width="300" height="118" rx="12" fill="#b2f2bb" stroke="#2f9e44" stroke-width="2.5"/>
<circle cx="826" cy="478" r="17" fill="#ffffff" stroke="#2f9e44" stroke-width="2"/>
<text x="826" y="484" font-size="15" font-weight="bold" text-anchor="middle" fill="#2f9e44" font-family="'DejaVu Sans Mono','Consolas',monospace">6</text>
<text x="852" y="484" font-size="19" font-weight="bold" text-anchor="start" fill="#343a40">Verify</text>
<text x="814" y="514" font-size="13.5" text-anchor="start" fill="#495057">Run tests · spec · secrets scan</text>
<rect x="1026" y="536" width="62" height="22" rx="11" fill="#d0bfff" stroke="#6741d9" stroke-width="1.5"/>
<text x="1057" y="551" font-size="12" font-weight="bold" text-anchor="middle" fill="#ffffff">Opus</text>
<rect x="36" y="610" width="1168" height="296" rx="14" fill="#f8f9fa" stroke="#6741d9" stroke-width="2"/>
<text x="620" y="640" font-size="19" font-weight="bold" text-anchor="middle" fill="#6741d9">Main commands  —  which phases each one runs</text>
<rect x="56" y="658" width="548" height="40" rx="9" fill="#d0bfff" stroke="#6741d9" stroke-width="2"/>
<text x="70" y="683" font-size="16" font-weight="bold" text-anchor="start" fill="#3b2a75" font-family="'DejaVu Sans Mono','Consolas',monospace">/hydraia:feature</text>
<rect x="508" y="666" width="84" height="24" rx="12" fill="#ffffff" stroke="#343a40" stroke-width="1.5"/>
<text x="550" y="683" font-size="13" font-weight="bold" text-anchor="middle" fill="#343a40" font-family="'DejaVu Sans Mono','Consolas',monospace">0 – 6</text>
<text x="70" y="695" font-size="12.5" text-anchor="start" fill="#5c5f66">Full pipeline: build, review, verify</text>
<rect x="620" y="658" width="548" height="40" rx="9" fill="#d0bfff" stroke="#6741d9" stroke-width="2"/>
<text x="634" y="683" font-size="16" font-weight="bold" text-anchor="start" fill="#3b2a75" font-family="'DejaVu Sans Mono','Consolas',monospace">/hydraia:plan</text>
<rect x="1072" y="666" width="84" height="24" rx="12" fill="#ffffff" stroke="#343a40" stroke-width="1.5"/>
<text x="1114" y="683" font-size="13" font-weight="bold" text-anchor="middle" fill="#343a40" font-family="'DejaVu Sans Mono','Consolas',monospace">0 – 3</text>
<text x="634" y="695" font-size="12.5" text-anchor="start" fill="#5c5f66">Plan only, then stop — no code</text>
<rect x="56" y="710" width="548" height="40" rx="9" fill="#d0bfff" stroke="#6741d9" stroke-width="2"/>
<text x="70" y="735" font-size="16" font-weight="bold" text-anchor="start" fill="#3b2a75" font-family="'DejaVu Sans Mono','Consolas',monospace">/hydraia:story</text>
<rect x="508" y="718" width="84" height="24" rx="12" fill="#ffffff" stroke="#343a40" stroke-width="1.5"/>
<text x="550" y="735" font-size="13" font-weight="bold" text-anchor="middle" fill="#343a40" font-family="'DejaVu Sans Mono','Consolas',monospace">-1 – 3</text>
<text x="70" y="747" font-size="12.5" text-anchor="start" fill="#5c5f66">PO analysis (INVEST, ACs) → plan</text>
<rect x="620" y="710" width="548" height="40" rx="9" fill="#d0bfff" stroke="#6741d9" stroke-width="2"/>
<text x="634" y="735" font-size="16" font-weight="bold" text-anchor="start" fill="#3b2a75" font-family="'DejaVu Sans Mono','Consolas',monospace">/hydraia:perf</text>
<rect x="1072" y="718" width="84" height="24" rx="12" fill="#ffffff" stroke="#343a40" stroke-width="1.5"/>
<text x="1114" y="735" font-size="13" font-weight="bold" text-anchor="middle" fill="#343a40" font-family="'DejaVu Sans Mono','Consolas',monospace">-1 – 6</text>
<text x="634" y="747" font-size="12.5" text-anchor="start" fill="#5c5f66">Measure-first performance run</text>
<rect x="56" y="762" width="548" height="40" rx="9" fill="#d0bfff" stroke="#6741d9" stroke-width="2"/>
<text x="70" y="787" font-size="16" font-weight="bold" text-anchor="start" fill="#3b2a75" font-family="'DejaVu Sans Mono','Consolas',monospace">/hydraia:db</text>
<rect x="508" y="770" width="84" height="24" rx="12" fill="#ffffff" stroke="#343a40" stroke-width="1.5"/>
<text x="550" y="787" font-size="13" font-weight="bold" text-anchor="middle" fill="#343a40" font-family="'DejaVu Sans Mono','Consolas',monospace">-1 – 6</text>
<text x="70" y="799" font-size="12.5" text-anchor="start" fill="#5c5f66">DB bottleneck tuning (EXPLAIN-first)</text>
<rect x="620" y="762" width="548" height="40" rx="9" fill="#d0bfff" stroke="#6741d9" stroke-width="2"/>
<text x="634" y="787" font-size="16" font-weight="bold" text-anchor="start" fill="#3b2a75" font-family="'DejaVu Sans Mono','Consolas',monospace">/hydraia:architect</text>
<rect x="1072" y="770" width="84" height="24" rx="12" fill="#ffffff" stroke="#343a40" stroke-width="1.5"/>
<text x="1114" y="787" font-size="13" font-weight="bold" text-anchor="middle" fill="#343a40" font-family="'DejaVu Sans Mono','Consolas',monospace">-1 – 6</text>
<text x="634" y="799" font-size="12.5" text-anchor="start" fill="#5c5f66">Greenfield app, designed first</text>
<rect x="56" y="814" width="548" height="40" rx="9" fill="#d0bfff" stroke="#6741d9" stroke-width="2"/>
<text x="70" y="839" font-size="16" font-weight="bold" text-anchor="start" fill="#3b2a75" font-family="'DejaVu Sans Mono','Consolas',monospace">/hydraia:review</text>
<rect x="508" y="822" width="84" height="24" rx="12" fill="#ffffff" stroke="#343a40" stroke-width="1.5"/>
<text x="550" y="839" font-size="13" font-weight="bold" text-anchor="middle" fill="#343a40" font-family="'DejaVu Sans Mono','Consolas',monospace">5 – 6</text>
<text x="70" y="851" font-size="12.5" text-anchor="start" fill="#5c5f66">Review an existing branch</text>
<rect x="620" y="814" width="548" height="40" rx="9" fill="#d0bfff" stroke="#6741d9" stroke-width="2"/>
<text x="634" y="839" font-size="16" font-weight="bold" text-anchor="start" fill="#3b2a75" font-family="'DejaVu Sans Mono','Consolas',monospace">/hydraia:graph</text>
<rect x="1072" y="822" width="84" height="24" rx="12" fill="#ffffff" stroke="#343a40" stroke-width="1.5"/>
<text x="1114" y="839" font-size="13" font-weight="bold" text-anchor="middle" fill="#343a40" font-family="'DejaVu Sans Mono','Consolas',monospace">query</text>
<text x="634" y="851" font-size="12.5" text-anchor="start" fill="#5c5f66">Blast radius, no pipeline, no edits</text>
<text x="620" y="932" font-size="13.5" text-anchor="middle" fill="#495057">Model split:  Opus 4.8 = judgment (design, plan, review)   ·   Sonnet 5 = execution</text>
<text x="620" y="954" font-size="12" text-anchor="middle" fill="#adb5bd">Spec-drive enforced by a runtime gate · resumable · artifacts saved under docs/hydraia/</text>
</svg>